Animal-Bold.ufo
<glyph name="ampersand" format="2">
	<advance width="614"/>
	<unicode hex="0026"/>
	<outline>
		<contour>
			<point x="501" y="0" type="curve" smooth="yes"/>
			<point x="548" y="0"/>
			<point x="571" y="28"/>
			<point x="571" y="55" type="curve" smooth="yes"/>
			<point x="571" y="83"/>
			<point x="548" y="110"/>
			<point x="501" y="110" type="curve" smooth="yes"/>
			<point x="436" y="110"/>
			<point x="195" y="386"/>
			<point x="195" y="544" type="curve" smooth="yes"/>
			<point x="195" y="588"/>
			<point x="218" y="618"/>
			<point x="253" y="618" type="curve" smooth="yes"/>
			<point x="289" y="618"/>
			<point x="313" y="588"/>
			<point x="313" y="544" type="curve" smooth="yes"/>
			<point x="313" y="443"/>
			<point x="274" y="376"/>
			<point x="215" y="376" type="curve"/>
			<point x="213" y="351" type="line"/>
			<point x="336" y="351"/>
			<point x="418" y="428"/>
			<point x="419" y="544" type="curve" smooth="yes"/>
			<point x="419" y="643"/>
			<point x="350" y="709"/>
			<point x="246" y="709" type="curve" smooth="yes"/>
			<point x="147" y="709"/>
			<point x="81" y="643"/>
			<point x="81" y="544" type="curve" smooth="yes"/>
			<point x="81" y="366"/>
			<point x="372" y="0"/>
		</contour>
		<contour>
			<point x="218" y="-9" type="curve" smooth="yes"/>
			<point x="320" y="-9"/>
			<point x="388" y="63"/>
			<point x="388" y="172" type="curve"/>
			<point x="342" y="172" type="line"/>
			<point x="342" y="120"/>
			<point x="318" y="85"/>
			<point x="266" y="85" type="curve" smooth="yes"/>
			<point x="187" y="85"/>
			<point x="135" y="130"/>
			<point x="135" y="198" type="curve" smooth="yes"/>
			<point x="135" y="271"/>
			<point x="155" y="320"/>
			<point x="185" y="320" type="curve"/>
			<point x="185" y="345" type="line"/>
			<point x="86" y="345"/>
			<point x="20" y="276"/>
			<point x="20" y="173" type="curve" smooth="yes"/>
			<point x="20" y="64"/>
			<point x="99" y="-9"/>
		</contour>
		<contour>
			<point x="349" y="172" type="curve"/>
			<point x="391" y="172" type="line"/>
			<point x="391" y="264"/>
			<point x="437" y="292"/>
			<point x="516" y="292" type="curve" smooth="yes"/>
			<point x="550" y="292"/>
			<point x="568" y="318"/>
			<point x="568" y="345" type="curve" smooth="yes"/>
			<point x="568" y="373"/>
			<point x="548" y="402"/>
			<point x="508" y="402" type="curve" smooth="yes"/>
			<point x="408" y="402"/>
			<point x="349" y="312"/>
		</contour>
	</outline>
</glyph>
<glyph name="quotesingle" format="2">
	<advance width="258"/>
	<unicode hex="0027"/>
	<anchor x="111" y="500" name="_top"/>
	<outline>
		<contour>
			<point x="84" y="455" type="curve" smooth="yes"/>
			<point x="60" y="621" type="line" smooth="yes"/>
			<point x="39" y="752"/>
			<point x="214" y="751"/>
			<point x="200" y="648" type="curve" smooth="yes"/>
			<point x="174" y="458" type="line" smooth="yes"/>
			<point x="167" y="401"/>
			<point x="93" y="382"/>
		</contour>
	</outline>
</glyph>
<glyph name="parenleft" format="2">
	<advance width="329"/>
	<unicode hex="0028"/>
	<guideline x="289" y="309" angle="90"/>
	<outline>
		<contour>
			<point x="217" y="-158" type="curve" smooth="yes"/>
			<point x="248" y="-158"/>
			<point x="262" y="-138"/>
			<point x="262" y="-117" type="curve" smooth="yes"/>
			<point x="262" y="-73"/>
			<point x="161" y="51"/>
			<point x="161" y="311" type="curve" smooth="yes"/>
			<point x="161" y="561"/>
			<point x="262" y="675"/>
			<point x="262" y="719" type="curve" smooth="yes"/>
			<point x="262" y="740"/>
			<point x="248" y="760"/>
			<point x="217" y="760" type="curve" smooth="yes"/>
			<point x="187" y="760"/>
			<point x="171" y="743"/>
			<point x="153" y="713" type="curve" smooth="yes"/>
			<point x="95" y="616"/>
			<point x="40" y="488"/>
			<point x="40" y="311" type="curve" smooth="yes"/>
			<point x="40" y="124"/>
			<point x="95" y="-14"/>
			<point x="153" y="-111" type="curve" smooth="yes"/>
			<point x="171" y="-141"/>
			<point x="187" y="-158"/>
		</contour>
	</outline>
</glyph>
<glyph name="parenright" format="2">
	<advance width="329"/>
	<unicode hex="0029"/>
	<outline>
		<contour>
			<point x="112" y="-158" type="curve" smooth="yes"/>
			<point x="142" y="-158"/>
			<point x="158" y="-141"/>
			<point x="176" y="-111" type="curve" smooth="yes"/>
			<point x="234" y="-14"/>
			<point x="289" y="124"/>
			<point x="289" y="311" type="curve" smooth="yes"/>
			<point x="289" y="488"/>
			<point x="234" y="616"/>
			<point x="176" y="713" type="curve" smooth="yes"/>
			<point x="158" y="743"/>
			<point x="142" y="760"/>
			<point x="112" y="760" type="curve" smooth="yes"/>
			<point x="81" y="760"/>
			<point x="67" y="740"/>
			<point x="67" y="719" type="curve" smooth="yes"/>
			<point x="67" y="675"/>
			<point x="168" y="561"/>
			<point x="168" y="311" type="curve" smooth="yes"/>
			<point x="168" y="51"/>
			<point x="67" y="-73"/>
			<point x="67" y="-117" type="curve" smooth="yes"/>
			<point x="67" y="-138"/>
			<point x="81" y="-158"/>
		</contour>
	</outline>
</glyph>
<glyph name="zero" format="2">
	<advance width="610"/>
	<unicode hex="0030"/>
	<outline>
		<contour>
			<point x="305" y="-10" type="curve" smooth="yes"/>
			<point x="449" y="-10"/>
			<point x="545" y="134"/>
			<point x="545" y="351" type="curve" smooth="yes"/>
			<point x="545" y="566"/>
			<point x="449" y="710"/>
			<point x="305" y="710" type="curve" smooth="yes"/>
			<point x="161" y="710"/>
			<point x="65" y="566"/>
			<point x="65" y="351" type="curve" smooth="yes"/>
			<point x="65" y="134"/>
			<point x="161" y="-10"/>
		</contour>
		<contour>
			<point x="305" y="90" type="curve" smooth="yes"/>
			<point x="233" y="90"/>
			<point x="185" y="194"/>
			<point x="185" y="351" type="curve" smooth="yes"/>
			<point x="185" y="506"/>
			<point x="233" y="610"/>
			<point x="305" y="610" type="curve" smooth="yes"/>
			<point x="377" y="610"/>
			<point x="425" y="506"/>
			<point x="425" y="351" type="curve" smooth="yes"/>
			<point x="425" y="194"/>
			<point x="377" y="90"/>
		</contour>
	</outline>
</glyph>
<glyph name="three" format="2">
	<advance width="487"/>
	<unicode hex="0033"/>
	<outline>
		<contour>
			<point x="208" y="-10" type="curve" smooth="yes"/>
			<point x="357" y="-10"/>
			<point x="456" y="73"/>
			<point x="456" y="197" type="curve" smooth="yes"/>
			<point x="456" y="303"/>
			<point x="369" y="373"/>
			<point x="241" y="373" type="curve"/>
			<point x="241" y="355" type="line"/>
			<point x="349" y="355"/>
			<point x="421" y="424"/>
			<point x="421" y="527" type="curve" smooth="yes"/>
			<point x="421" y="637"/>
			<point x="338" y="710"/>
			<point x="215" y="710" type="curve" smooth="yes"/>
			<point x="104" y="710"/>
			<point x="29" y="645"/>
			<point x="29" y="547" type="curve" smooth="yes"/>
			<point x="29" y="500"/>
			<point x="57" y="469"/>
			<point x="98" y="469" type="curve" smooth="yes"/>
			<point x="139" y="469"/>
			<point x="167" y="492"/>
			<point x="167" y="527" type="curve"/>
			<point x="167" y="558"/>
			<point x="144" y="578"/>
			<point x="110" y="578" type="curve"/>
			<point x="135" y="563" type="line"/>
			<point x="135" y="591"/>
			<point x="162" y="610"/>
			<point x="204" y="610" type="curve" smooth="yes"/>
			<point x="251" y="610"/>
			<point x="303" y="573"/>
			<point x="303" y="518" type="curve" smooth="yes"/>
			<point x="303" y="448"/>
			<point x="245" y="402"/>
			<point x="189" y="402" type="curve" smooth="yes"/>
			<point x="157" y="402"/>
			<point x="135" y="384"/>
			<point x="135" y="356" type="curve" smooth="yes"/>
			<point x="135" y="331"/>
			<point x="157" y="314"/>
			<point x="189" y="314" type="curve" smooth="yes"/>
			<point x="266" y="314"/>
			<point x="338" y="264"/>
			<point x="338" y="190" type="curve" smooth="yes"/>
			<point x="338" y="130"/>
			<point x="271" y="90"/>
			<point x="200" y="90" type="curve" smooth="yes"/>
			<point x="169" y="90"/>
			<point x="131" y="101"/>
			<point x="107" y="117" type="curve" smooth="yes"/>
			<point x="50" y="155"/>
			<point x="-25" y="92"/>
			<point x="43" y="41" type="curve" smooth="yes"/>
			<point x="83" y="10"/>
			<point x="149" y="-10"/>
		</contour>
	</outline>
</glyph>
<glyph name="four" format="2">
	<advance width="565"/>
	<unicode hex="0034"/>
	<outline>
		<contour>
			<point x="142" y="150" type="curve" smooth="yes"/>
			<point x="485" y="150" type="line" smooth="yes"/>
			<point x="521" y="150"/>
			<point x="545" y="167"/>
			<point x="545" y="200" type="curve" smooth="yes"/>
			<point x="545" y="233"/>
			<point x="521" y="250"/>
			<point x="485" y="250" type="curve" smooth="yes"/>
			<point x="202" y="250" type="line"/>
			<point x="205" y="235" type="line"/>
			<point x="204" y="335" type="line"/>
			<point x="202" y="255" type="line"/>
			<point x="295" y="613" type="line" smooth="yes"/>
			<point x="312" y="677"/>
			<point x="282" y="708"/>
			<point x="246" y="708" type="curve" smooth="yes"/>
			<point x="220" y="708"/>
			<point x="191" y="692"/>
			<point x="182" y="661" type="curve" smooth="yes"/>
			<point x="68" y="250" type="line" smooth="yes"/>
			<point x="50" y="185"/>
			<point x="66" y="150"/>
		</contour>
		<contour>
			<point x="405" y="-10" type="curve" smooth="yes"/>
			<point x="442" y="-10"/>
			<point x="466" y="18"/>
			<point x="466" y="60" type="curve" smooth="yes"/>
			<point x="466" y="440" type="line" smooth="yes"/>
			<point x="466" y="482"/>
			<point x="441" y="510"/>
			<point x="406" y="510" type="curve" smooth="yes"/>
			<point x="370" y="510"/>
			<point x="346" y="482"/>
			<point x="346" y="440" type="curve" smooth="yes"/>
			<point x="346" y="60" type="line" smooth="yes"/>
			<point x="346" y="18"/>
			<point x="370" y="-10"/>
		</contour>
	</outline>
</glyph>
<glyph name="five" format="2">
	<advance width="482"/>
	<unicode hex="0035"/>
	<outline>
		<contour>
			<point x="212" y="-10" type="curve" smooth="yes"/>
			<point x="347" y="-10"/>
			<point x="437" y="77"/>
			<point x="437" y="207" type="curve" smooth="yes"/>
			<point x="437" y="342"/>
			<point x="349" y="432"/>
			<point x="218" y="432" type="curve" smooth="yes"/>
			<point x="141" y="432" type="line"/>
			<point x="170" y="409" type="line"/>
			<point x="170" y="639" type="line"/>
			<point x="124" y="600" type="line"/>
			<point x="355" y="600" type="line" smooth="yes"/>
			<point x="390" y="600"/>
			<point x="414" y="620"/>
			<point x="414" y="650" type="curve" smooth="yes"/>
			<point x="414" y="680"/>
			<point x="390" y="700"/>
			<point x="354" y="700" type="curve" smooth="yes"/>
			<point x="125" y="700" type="line" smooth="yes"/>
			<point x="89" y="700"/>
			<point x="65" y="680"/>
			<point x="65" y="650" type="curve" smooth="yes"/>
			<point x="65" y="432" type="line" smooth="yes"/>
			<point x="65" y="372"/>
			<point x="110" y="332"/>
			<point x="155" y="332" type="curve" smooth="yes"/>
			<point x="219" y="332" type="line" smooth="yes"/>
			<point x="278" y="332"/>
			<point x="317" y="279"/>
			<point x="317" y="200" type="curve" smooth="yes"/>
			<point x="317" y="134"/>
			<point x="277" y="90"/>
			<point x="218" y="90" type="curve" smooth="yes"/>
			<point x="183" y="90"/>
			<point x="145" y="101"/>
			<point x="124" y="117" type="curve" smooth="yes"/>
			<point x="74" y="155"/>
			<point x="9" y="92"/>
			<point x="68" y="41" type="curve" smooth="yes"/>
			<point x="103" y="10"/>
			<point x="160" y="-10"/>
		</contour>
	</outline>
</glyph>
<glyph name="question" format="2">
	<advance width="411"/>
	<unicode hex="003F"/>
	<guideline x="194" y="220" angle="90.5209"/>
	<outline>
		<contour>
			<point x="192" y="196" type="curve" smooth="yes"/>
			<point x="222" y="196"/>
			<point x="247" y="218"/>
			<point x="247" y="260" type="curve" smooth="yes"/>
			<point x="247" y="405"/>
			<point x="399" y="366"/>
			<point x="399" y="567" type="curve" smooth="yes"/>
			<point x="399" y="677"/>
			<point x="327" y="760"/>
			<point x="197" y="760" type="curve" smooth="yes"/>
			<point x="69" y="760"/>
			<point x="-5" y="657"/>
			<point x="-3" y="582" type="curve" smooth="yes"/>
			<point x="-2" y="530"/>
			<point x="27" y="505"/>
			<point x="63" y="505" type="curve" smooth="yes"/>
			<point x="93" y="505"/>
			<point x="122" y="525"/>
			<point x="121" y="563" type="curve" smooth="yes"/>
			<point x="121" y="591"/>
			<point x="103" y="618"/>
			<point x="68" y="618" type="curve"/>
			<point x="93" y="571" type="line"/>
			<point x="93" y="612"/>
			<point x="132" y="660"/>
			<point x="197" y="660" type="curve" smooth="yes"/>
			<point x="261" y="660"/>
			<point x="289" y="613"/>
			<point x="289" y="558" type="curve" smooth="yes"/>
			<point x="289" y="401"/>
			<point x="137" y="446"/>
			<point x="137" y="259" type="curve" smooth="yes"/>
			<point x="137" y="217"/>
			<point x="161" y="196"/>
		</contour>
		<component base="period" xOffset="91" yOffset="-1"/>
	</outline>
</glyph>
<glyph name="at" format="2">
	<advance width="972"/>
	<unicode hex="0040"/>
	<outline>
		<contour>
			<point x="398" y="-210" type="curve" smooth="yes"/>
			<point x="466" y="-210"/>
			<point x="542" y="-196"/>
			<point x="590" y="-174" type="curve" smooth="yes"/>
			<point x="669" y="-136"/>
			<point x="614" y="-48"/>
			<point x="545" y="-83" type="curve" smooth="yes"/>
			<point x="512" y="-99"/>
			<point x="461" y="-110"/>
			<point x="418" y="-110" type="curve" smooth="yes"/>
			<point x="266" y="-110"/>
			<point x="165" y="41"/>
			<point x="165" y="267" type="curve" smooth="yes"/>
			<point x="165" y="497"/>
			<point x="305" y="650"/>
			<point x="516" y="650" type="curve" smooth="yes"/>
			<point x="721" y="650"/>
			<point x="858" y="504"/>
			<point x="858" y="286" type="curve" smooth="yes"/>
			<point x="858" y="169"/>
			<point x="826" y="91"/>
			<point x="778" y="91" type="curve" smooth="yes"/>
			<point x="730" y="91"/>
			<point x="698" y="169"/>
			<point x="698" y="286" type="curve" smooth="yes"/>
			<point x="698" y="474" type="line"/>
			<point x="653" y="506"/>
			<point x="578" y="528"/>
			<point x="511" y="528" type="curve" smooth="yes"/>
			<point x="368" y="528"/>
			<point x="272" y="409"/>
			<point x="272" y="231" type="curve" smooth="yes"/>
			<point x="272" y="86"/>
			<point x="337" y="-10"/>
			<point x="434" y="-10" type="curve" smooth="yes"/>
			<point x="515" y="-10"/>
			<point x="573" y="45"/>
			<point x="587" y="132" type="curve"/>
			<point x="593" y="130" type="line"/>
			<point x="618" y="44"/>
			<point x="685" y="-9"/>
			<point x="775" y="-9" type="curve" smooth="yes"/>
			<point x="897" y="-9"/>
			<point x="978" y="117"/>
			<point x="978" y="307" type="curve" smooth="yes"/>
			<point x="978" y="573"/>
			<point x="796" y="750"/>
			<point x="523" y="750" type="curve" smooth="yes"/>
			<point x="236" y="750"/>
			<point x="45" y="555"/>
			<point x="45" y="263" type="curve" smooth="yes"/>
			<point x="45" y="-21"/>
			<point x="186" y="-210"/>
		</contour>
		<contour>
			<point x="459" y="90" type="curve" smooth="yes"/>
			<point x="419" y="90"/>
			<point x="392" y="148"/>
			<point x="392" y="235" type="curve" smooth="yes"/>
			<point x="392" y="342"/>
			<point x="440" y="408"/>
			<point x="512" y="408" type="curve" smooth="yes"/>
			<point x="529" y="408"/>
			<point x="553" y="403"/>
			<point x="578" y="394" type="curve"/>
			<point x="578" y="280" type="line" smooth="yes"/>
			<point x="578" y="166"/>
			<point x="530" y="90"/>
		</contour>
	</outline>
</glyph>
<glyph name="D" format="2">
	<advance width="605"/>
	<unicode hex="0044"/>
	<outline>
		<contour>
			<point x="264" y="-9" type="curve" smooth="yes"/>
			<point x="474" y="-9"/>
			<point x="540" y="140"/>
			<point x="540" y="350" type="curve" smooth="yes"/>
			<point x="540" y="566"/>
			<point x="481" y="710"/>
			<point x="266" y="710" type="curve" smooth="yes"/>
			<point x="143" y="710"/>
			<point x="70" y="686"/>
			<point x="70" y="629" type="curve" smooth="yes"/>
			<point x="70" y="85" type="line" smooth="yes"/>
			<point x="70" y="12"/>
			<point x="148" y="-9"/>
		</contour>
		<contour>
			<point x="274" y="100" type="curve" smooth="yes"/>
			<point x="240" y="100"/>
			<point x="206" y="106"/>
			<point x="190" y="110" type="curve"/>
			<point x="190" y="602" type="line"/>
			<point x="219" y="606"/>
			<point x="245" y="608"/>
			<point x="268" y="608" type="curve" smooth="yes"/>
			<point x="399" y="608"/>
			<point x="420" y="533"/>
			<point x="420" y="350" type="curve" smooth="yes"/>
			<point x="420" y="150"/>
			<point x="396" y="100"/>
		</contour>
	</outline>
</glyph>
<glyph name="F" format="2">
	<advance width="442"/>
	<unicode hex="0046"/>
	<outline>
		<contour>
			<point x="129" y="-10" type="curve" smooth="yes"/>
			<point x="165" y="-10"/>
			<point x="190" y="18"/>
			<point x="190" y="60" type="curve"/>
			<point x="190" y="639" type="line"/>
			<point x="131" y="600" type="line"/>
			<point x="388" y="600" type="line" smooth="yes"/>
			<point x="423" y="600"/>
			<point x="447" y="620"/>
			<point x="447" y="650" type="curve" smooth="yes"/>
			<point x="447" y="680"/>
			<point x="423" y="700"/>
			<point x="387" y="700" type="curve" smooth="yes"/>
			<point x="130" y="700" type="line" smooth="yes"/>
			<point x="94" y="700"/>
			<point x="70" y="672"/>
			<point x="70" y="630" type="curve"/>
			<point x="70" y="60" type="line" smooth="yes"/>
			<point x="70" y="18"/>
			<point x="94" y="-10"/>
		</contour>
		<contour>
			<point x="107" y="271" type="line"/>
			<point x="328" y="271" type="line" smooth="yes"/>
			<point x="363" y="271"/>
			<point x="387" y="291"/>
			<point x="387" y="321" type="curve" smooth="yes"/>
			<point x="387" y="351"/>
			<point x="363" y="371"/>
			<point x="327" y="371" type="curve" smooth="yes"/>
			<point x="107" y="371" type="line"/>
		</contour>
	</outline>
</glyph>
<glyph name="J" format="2">
	<advance width="455"/>
	<unicode hex="004A"/>
	<outline>
		<contour>
			<point x="200" y="-10" type="curve" smooth="yes"/>
			<point x="318" y="-10"/>
			<point x="390" y="74"/>
			<point x="390" y="200" type="curve" smooth="yes"/>
			<point x="390" y="640" type="line" smooth="yes"/>
			<point x="390" y="682"/>
			<point x="366" y="710"/>
			<point x="330" y="710" type="curve" smooth="yes"/>
			<point x="294" y="710"/>
			<point x="270" y="682"/>
			<point x="270" y="640" type="curve" smooth="yes"/>
			<point x="270" y="200" type="line" smooth="yes"/>
			<point x="270" y="134"/>
			<point x="232" y="90"/>
			<point x="190" y="90" type="curve" smooth="yes"/>
			<point x="138" y="90"/>
			<point x="110" y="123"/>
			<point x="110" y="173" type="curve"/>
			<point x="80" y="142" type="line"/>
			<point x="116" y="142"/>
			<point x="140" y="162"/>
			<point x="140" y="193" type="curve"/>
			<point x="140" y="228"/>
			<point x="114" y="251"/>
			<point x="75" y="251" type="curve" smooth="yes"/>
			<point x="36" y="251"/>
			<point x="10" y="220"/>
			<point x="10" y="173" type="curve" smooth="yes"/>
			<point x="10" y="63"/>
			<point x="82" y="-10"/>
		</contour>
	</outline>
</glyph>
<glyph name="K" format="2">
	<advance width="546"/>
	<unicode hex="004B"/>
	<outline>
		<contour>
			<point x="494" y="-10" type="curve" smooth="yes"/>
			<point x="516" y="-10"/>
			<point x="544" y="12"/>
			<point x="544" y="37" type="curve" smooth="yes"/>
			<point x="544" y="49"/>
			<point x="540" y="65"/>
			<point x="528" y="84" type="curve" smooth="yes"/>
			<point x="307" y="426" type="line"/>
			<point x="307" y="323" type="line"/>
			<point x="530" y="626" type="line" smooth="yes"/>
			<point x="538" y="637"/>
			<point x="542" y="651"/>
			<point x="542" y="666" type="curve" smooth="yes"/>
			<point x="542" y="689"/>
			<point x="519" y="710"/>
			<point x="494" y="710" type="curve" smooth="yes"/>
			<point x="464" y="710"/>
			<point x="444" y="696"/>
			<point x="423" y="667" type="curve" smooth="yes"/>
			<point x="260" y="440" type="line" smooth="yes"/>
			<point x="242" y="415"/>
			<point x="234" y="394"/>
			<point x="234" y="373" type="curve" smooth="yes"/>
			<point x="234" y="348"/>
			<point x="246" y="323"/>
			<point x="267" y="290" type="curve" smooth="yes"/>
			<point x="436" y="22" type="line" smooth="yes"/>
			<point x="450" y="-1"/>
			<point x="473" y="-10"/>
		</contour>
		<contour>
			<point x="130" y="-10" type="curve" smooth="yes"/>
			<point x="165" y="-10"/>
			<point x="190" y="18"/>
			<point x="190" y="60" type="curve" smooth="yes"/>
			<point x="190" y="640" type="line" smooth="yes"/>
			<point x="190" y="682"/>
			<point x="166" y="710"/>
			<point x="129" y="710" type="curve" smooth="yes"/>
			<point x="94" y="710"/>
			<point x="70" y="682"/>
			<point x="70" y="640" type="curve" smooth="yes"/>
			<point x="70" y="60" type="line" smooth="yes"/>
			<point x="70" y="18"/>
			<point x="94" y="-10"/>
		</contour>
	</outline>
</glyph>
<glyph name="N" format="2">
	<advance width="604"/>
	<unicode hex="004E"/>
	<anchor x="310" y="700" name="top"/>
	<anchor x="302" y="0" name="bottom"/>
	<outline>
		<contour>
			<point x="125" y="-10" type="curve" smooth="yes"/>
			<point x="158" y="-10"/>
			<point x="175" y="14"/>
			<point x="175" y="50" type="curve" smooth="yes"/>
			<point x="175" y="613" type="line"/>
			<point x="155" y="610" type="line"/>
			<point x="258" y="610" type="line"/>
			<point x="180" y="613" type="line"/>
			<point x="317" y="86" type="line" smooth="yes"/>
			<point x="333" y="23"/>
			<point x="379" y="-10"/>
			<point x="425" y="-10" type="curve" smooth="yes"/>
			<point x="491" y="-10"/>
			<point x="534" y="24"/>
			<point x="534" y="87" type="curve" smooth="yes"/>
			<point x="534" y="650" type="line" smooth="yes"/>
			<point x="534" y="686"/>
			<point x="512" y="710"/>
			<point x="479" y="710" type="curve" smooth="yes"/>
			<point x="446" y="710"/>
			<point x="428" y="686"/>
			<point x="428" y="650" type="curve" smooth="yes"/>
			<point x="428" y="88" type="line"/>
			<point x="449" y="90" type="line"/>
			<point x="366" y="90" type="line"/>
			<point x="422" y="88" type="line"/>
			<point x="285" y="613" type="line" smooth="yes"/>
			<point x="270" y="669"/>
			<point x="241" y="710"/>
			<point x="177" y="710" type="curve" smooth="yes"/>
			<point x="113" y="710"/>
			<point x="70" y="671"/>
			<point x="70" y="613" type="curve" smooth="yes"/>
			<point x="70" y="50" type="line" smooth="yes"/>
			<point x="70" y="14"/>
			<point x="92" y="-10"/>
		</contour>
	</outline>
</glyph>
<glyph name="Q" format="2">
	<advance width="609"/>
	<unicode hex="0051"/>
	<outline>
		<contour>
			<point x="453" y="-173" type="curve" smooth="yes"/>
			<point x="507" y="-173"/>
			<point x="544" y="-134"/>
			<point x="544" y="-90" type="curve" smooth="yes"/>
			<point x="544" y="6"/>
			<point x="426" y="-83"/>
			<point x="352" y="-9" type="curve"/>
			<point x="352" y="-1" type="line"/>
			<point x="489" y="38"/>
			<point x="538" y="192"/>
			<point x="538" y="351" type="curve" smooth="yes"/>
			<point x="538" y="556"/>
			<point x="515" y="710"/>
			<point x="302" y="710" type="curve" smooth="yes"/>
			<point x="89" y="710"/>
			<point x="65" y="556"/>
			<point x="65" y="351" type="curve" smooth="yes"/>
			<point x="65" y="147"/>
			<point x="119" y="-9"/>
			<point x="252" y="-10" type="curve"/>
			<point x="289" y="-97"/>
			<point x="361" y="-173"/>
		</contour>
		<contour>
			<point x="306" y="85" type="curve" smooth="yes"/>
			<point x="228" y="87"/>
			<point x="188" y="154"/>
			<point x="188" y="351" type="curve" smooth="yes"/>
			<point x="188" y="551"/>
			<point x="222" y="615"/>
			<point x="302" y="615" type="curve" smooth="yes"/>
			<point x="386" y="615"/>
			<point x="415" y="551"/>
			<point x="415" y="351" type="curve" smooth="yes"/>
			<point x="415" y="174"/>
			<point x="387" y="87"/>
		</contour>
	</outline>
</glyph>
<glyph name="R" format="2">
	<advance width="597"/>
	<unicode hex="0052"/>
	<guideline x="540" y="486" angle="90"/>
	<outline>
		<contour>
			<point x="130" y="-10" type="curve" smooth="yes"/>
			<point x="166" y="-10"/>
			<point x="190" y="18"/>
			<point x="190" y="60" type="curve" smooth="yes"/>
			<point x="190" y="629" type="line"/>
			<point x="147" y="583" type="line"/>
			<point x="176" y="605"/>
			<point x="224" y="607"/>
			<point x="249" y="607" type="curve" smooth="yes"/>
			<point x="350" y="607"/>
			<point x="399" y="558"/>
			<point x="399" y="480" type="curve" smooth="yes"/>
			<point x="399" y="405"/>
			<point x="336" y="376"/>
			<point x="295" y="354" type="curve" smooth="yes"/>
			<point x="251" y="330"/>
			<point x="244" y="312"/>
			<point x="244" y="293" type="curve" smooth="yes"/>
			<point x="244" y="274"/>
			<point x="256" y="265"/>
			<point x="280" y="239" type="curve"/>
			<point x="427" y="36" type="line" smooth="yes"/>
			<point x="447" y="9"/>
			<point x="468" y="-9"/>
			<point x="492" y="-9" type="curve" smooth="yes"/>
			<point x="528" y="-9"/>
			<point x="572" y="28"/>
			<point x="531" y="83" type="curve" smooth="yes"/>
			<point x="344" y="330" type="line"/>
			<point x="320" y="271" type="line"/>
			<point x="434" y="306"/>
			<point x="519" y="372"/>
			<point x="519" y="486" type="curve" smooth="yes"/>
			<point x="519" y="620"/>
			<point x="440" y="710"/>
			<point x="267" y="710" type="curve" smooth="yes"/>
			<point x="157" y="710"/>
			<point x="70" y="689"/>
			<point x="70" y="620" type="curve" smooth="yes"/>
			<point x="70" y="60" type="line" smooth="yes"/>
			<point x="70" y="18"/>
			<point x="94" y="-10"/>
		</contour>
	</outline>
</glyph>
<glyph name="V" format="2">
	<advance width="608"/>
	<unicode hex="0056"/>
	<outline>
		<contour>
			<point x="304" y="-10" type="curve" smooth="yes"/>
			<point x="367" y="-10"/>
			<point x="410" y="35"/>
			<point x="427" y="99" type="curve" smooth="yes"/>
			<point x="570" y="630" type="line"/>
			<point x="581" y="673"/>
			<point x="566" y="710"/>
			<point x="524" y="710" type="curve" smooth="yes"/>
			<point x="495" y="710"/>
			<point x="466" y="690"/>
			<point x="456" y="650" type="curve" smooth="yes"/>
			<point x="303" y="65" type="line"/>
			<point x="326" y="90" type="line"/>
			<point x="287" y="90" type="line"/>
			<point x="313" y="67" type="line"/>
			<point x="161" y="649" type="line" smooth="yes"/>
			<point x="151" y="688"/>
			<point x="121" y="709"/>
			<point x="93" y="709" type="curve" smooth="yes"/>
			<point x="50" y="709"/>
			<point x="27" y="668"/>
			<point x="37" y="629" type="curve" smooth="yes"/>
			<point x="179" y="99" type="line" smooth="yes"/>
			<point x="196" y="35"/>
			<point x="240" y="-10"/>
		</contour>
	</outline>
</glyph>
<glyph name="W" format="2">
	<advance width="724"/>
	<unicode hex="0057"/>
	<outline>
		<contour>
			<point x="197" y="-9" type="curve" smooth="yes"/>
			<point x="246" y="-9"/>
			<point x="293" y="26"/>
			<point x="302" y="99" type="curve" smooth="yes"/>
			<point x="354" y="529" type="line"/>
			<point x="311" y="525" type="line"/>
			<point x="415" y="525" type="line"/>
			<point x="362" y="529" type="line"/>
			<point x="412" y="99" type="line" smooth="yes"/>
			<point x="420" y="27"/>
			<point x="469" y="-9"/>
			<point x="518" y="-9" type="curve" smooth="yes"/>
			<point x="568" y="-9"/>
			<point x="618" y="27"/>
			<point x="627" y="99" type="curve" smooth="yes"/>
			<point x="693" y="643" type="line" smooth="yes"/>
			<point x="698" y="686"/>
			<point x="673" y="709"/>
			<point x="646" y="709" type="curve" smooth="yes"/>
			<point x="622" y="709"/>
			<point x="598" y="690"/>
			<point x="593" y="649" type="curve" smooth="yes"/>
			<point x="523" y="63" type="line"/>
			<point x="542" y="92" type="line"/>
			<point x="503" y="92" type="line"/>
			<point x="519" y="60" type="line"/>
			<point x="443" y="565" type="line" smooth="yes"/>
			<point x="437" y="606"/>
			<point x="404" y="634"/>
			<point x="361" y="634" type="curve" smooth="yes"/>
			<point x="318" y="634"/>
			<point x="285" y="606"/>
			<point x="279" y="565" type="curve" smooth="yes"/>
			<point x="205" y="86" type="line"/>
			<point x="218" y="93" type="line"/>
			<point x="179" y="93" type="line"/>
			<point x="197" y="74" type="line"/>
			<point x="131" y="649" type="line" smooth="yes"/>
			<point x="126" y="690"/>
			<point x="98" y="710"/>
			<point x="71" y="710" type="curve" smooth="yes"/>
			<point x="42" y="710"/>
			<point x="16" y="687"/>
			<point x="21" y="643" type="curve" smooth="yes"/>
			<point x="87" y="99" type="line" smooth="yes"/>
			<point x="96" y="28"/>
			<point x="147" y="-9"/>
		</contour>
	</outline>
</glyph>
<glyph name="Y" format="2">
	<advance width="544"/>
	<unicode hex="0059"/>
	<anchor x="272" y="700" name="top"/>
	<anchor x="272" y="0" name="bottom"/>
	<anchor x="20" y="700" name="topleft"/>
	<outline>
		<contour>
			<point x="274" y="211" type="curve" smooth="yes"/>
			<point x="292" y="211"/>
			<point x="309" y="216"/>
			<point x="320" y="239" type="curve" smooth="yes"/>
			<point x="501" y="630" type="line" smooth="yes"/>
			<point x="525" y="683"/>
			<point x="489" y="712"/>
			<point x="460" y="712" type="curve" smooth="yes"/>
			<point x="437" y="712"/>
			<point x="418" y="694"/>
			<point x="403" y="659" type="curve" smooth="yes"/>
			<point x="279" y="367" type="line"/>
			<point x="296" y="375" type="line"/>
			<point x="257" y="375" type="line"/>
			<point x="278" y="367" type="line"/>
			<point x="156" y="649" type="line" smooth="yes"/>
			<point x="138" y="691"/>
			<point x="117" y="712"/>
			<point x="91" y="712" type="curve" smooth="yes"/>
			<point x="58" y="712"/>
			<point x="19" y="677"/>
			<point x="41" y="631" type="curve" smooth="yes"/>
			<point x="232" y="238" type="line" smooth="yes"/>
			<point x="242" y="218"/>
			<point x="251" y="211"/>
		</contour>
		<contour>
			<point x="276" y="-10" type="curve" smooth="yes"/>
			<point x="312" y="-10"/>
			<point x="337" y="18"/>
			<point x="337" y="60" type="curve" smooth="yes"/>
			<point x="337" y="290" type="line"/>
			<point x="217" y="292" type="line"/>
			<point x="217" y="60" type="line" smooth="yes"/>
			<point x="217" y="18"/>
			<point x="241" y="-10"/>
		</contour>
	</outline>
</glyph>
<glyph name="c" format="2">
	<advance width="485"/>
	<unicode hex="0063"/>
	<outline>
		<contour>
			<point x="275" y="-10" type="curve" smooth="yes"/>
			<point x="330" y="-10"/>
			<point x="387" y="9"/>
			<point x="419" y="41" type="curve" smooth="yes"/>
			<point x="478" y="99"/>
			<point x="429" y="167"/>
			<point x="364" y="117" type="curve" smooth="yes"/>
			<point x="343" y="101"/>
			<point x="319" y="80"/>
			<point x="270" y="80" type="curve" smooth="yes"/>
			<point x="202" y="80"/>
			<point x="170" y="148"/>
			<point x="170" y="250" type="curve" smooth="yes"/>
			<point x="170" y="366"/>
			<point x="212" y="420"/>
			<point x="275" y="420" type="curve" smooth="yes"/>
			<point x="319" y="420"/>
			<point x="349" y="398"/>
			<point x="349" y="366" type="curve"/>
			<point x="379" y="397" type="line"/>
			<point x="343" y="397"/>
			<point x="319" y="377"/>
			<point x="319" y="346" type="curve"/>
			<point x="319" y="311"/>
			<point x="345" y="288"/>
			<point x="384" y="288" type="curve" smooth="yes"/>
			<point x="420" y="288"/>
			<point x="444" y="319"/>
			<point x="444" y="366" type="curve" smooth="yes"/>
			<point x="444" y="452"/>
			<point x="376" y="510"/>
			<point x="275" y="510" type="curve" smooth="yes"/>
			<point x="125" y="510"/>
			<point x="55" y="406"/>
			<point x="55" y="250" type="curve" smooth="yes"/>
			<point x="55" y="73"/>
			<point x="143" y="-10"/>
		</contour>
	</outline>
</glyph>
<glyph name="e" format="2">
	<advance width="490"/>
	<unicode hex="0065"/>
	<anchor x="245" y="500" name="top"/>
	<outline>
		<contour>
			<point x="279" y="-10" type="curve" smooth="yes"/>
			<point x="354" y="-10"/>
			<point x="451" y="36"/>
			<point x="451" y="95" type="curve" smooth="yes"/>
			<point x="451" y="116"/>
			<point x="436" y="132"/>
			<point x="414" y="132" type="curve" smooth="yes"/>
			<point x="365" y="132"/>
			<point x="378" y="80"/>
			<point x="275" y="80" type="curve" smooth="yes"/>
			<point x="189" y="80"/>
			<point x="170" y="148"/>
			<point x="170" y="250" type="curve" smooth="yes"/>
			<point x="170" y="372"/>
			<point x="204" y="420"/>
			<point x="263" y="420" type="curve" smooth="yes"/>
			<point x="316" y="420"/>
			<point x="343" y="381"/>
			<point x="347" y="289" type="curve" smooth="yes"/>
			<point x="348" y="281"/>
			<point x="348" y="273"/>
			<point x="348" y="264" type="curve"/>
			<point x="385" y="296" type="line"/>
			<point x="146" y="296" type="line"/>
			<point x="136" y="218" type="line"/>
			<point x="385" y="218" type="line"/>
			<point x="421" y="218"/>
			<point x="447" y="241"/>
			<point x="447" y="288" type="curve" smooth="yes"/>
			<point x="447" y="425"/>
			<point x="393" y="510"/>
			<point x="262" y="510" type="curve" smooth="yes"/>
			<point x="111" y="510"/>
			<point x="55" y="406"/>
			<point x="55" y="250" type="curve" smooth="yes"/>
			<point x="55" y="63"/>
			<point x="143" y="-10"/>
		</contour>
	</outline>
</glyph>
<glyph name="l" format="2">
	<advance width="230"/>
	<unicode hex="006C"/>
	<outline>
		<contour>
			<point x="115" y="-10" type="curve" smooth="yes"/>
			<point x="148" y="-10"/>
			<point x="170" y="14"/>
			<point x="170" y="50" type="curve" smooth="yes"/>
			<point x="170" y="700" type="line" smooth="yes"/>
			<point x="170" y="736"/>
			<point x="148" y="760"/>
			<point x="115" y="760" type="curve" smooth="yes"/>
			<point x="82" y="760"/>
			<point x="60" y="736"/>
			<point x="60" y="700" type="curve" smooth="yes"/>
			<point x="60" y="50" type="line" smooth="yes"/>
			<point x="60" y="14"/>
			<point x="82" y="-10"/>
		</contour>
	</outline>
</glyph>
<glyph name="o" format="2">
	<advance width="532"/>
	<unicode hex="006F"/>
	<anchor x="266" y="500" name="top"/>
	<outline>
		<contour>
			<point x="267" y="-10" type="curve" smooth="yes"/>
			<point x="418" y="-10"/>
			<point x="477" y="94"/>
			<point x="477" y="250" type="curve" smooth="yes"/>
			<point x="477" y="437"/>
			<point x="393" y="510"/>
			<point x="267" y="510" type="curve" smooth="yes"/>
			<point x="114" y="510"/>
			<point x="55" y="406"/>
			<point x="55" y="250" type="curve" smooth="yes"/>
			<point x="55" y="63"/>
			<point x="140" y="-10"/>
		</contour>
		<contour>
			<point x="269" y="81" type="curve" smooth="yes"/>
			<point x="198" y="81"/>
			<point x="170" y="149"/>
			<point x="170" y="250" type="curve" smooth="yes"/>
			<point x="170" y="372"/>
			<point x="209" y="419"/>
			<point x="267" y="419" type="curve" smooth="yes"/>
			<point x="335" y="419"/>
			<point x="362" y="351"/>
			<point x="362" y="250" type="curve" smooth="yes"/>
			<point x="362" y="128"/>
			<point x="325" y="81"/>
		</contour>
	</outline>
</glyph>
<glyph name="v" format="2">
	<advance width="493"/>
	<unicode hex="0076"/>
	<outline>
		<contour>
			<point x="249" y="-8" type="curve" smooth="yes"/>
			<point x="307" y="-8"/>
			<point x="356" y="35"/>
			<point x="372" y="99" type="curve" smooth="yes"/>
			<point x="456" y="430" type="line" smooth="yes"/>
			<point x="470" y="484"/>
			<point x="444" y="512"/>
			<point x="415" y="512" type="curve" smooth="yes"/>
			<point x="392" y="512"/>
			<point x="367" y="494"/>
			<point x="358" y="459" type="curve" smooth="yes"/>
			<point x="262" y="83" type="line"/>
			<point x="271" y="92" type="line"/>
			<point x="232" y="92" type="line"/>
			<point x="245" y="83" type="line"/>
			<point x="151" y="449" type="line" smooth="yes"/>
			<point x="140" y="493"/>
			<point x="112" y="512"/>
			<point x="86" y="512" type="curve" smooth="yes"/>
			<point x="53" y="512"/>
			<point x="22" y="480"/>
			<point x="36" y="431" type="curve" smooth="yes"/>
			<point x="124" y="99" type="line" smooth="yes"/>
			<point x="141" y="35"/>
			<point x="191" y="-8"/>
		</contour>
	</outline>
</glyph>
<glyph name="w" format="2">
	<advance width="690"/>
	<unicode hex="0077"/>
	<outline>
		<contour>
			<point x="197" y="-8" type="curve" smooth="yes"/>
			<point x="262" y="-8"/>
			<point x="286" y="35"/>
			<point x="295" y="99" type="curve" smooth="yes"/>
			<point x="346" y="469" type="line"/>
			<point x="293" y="420" type="line"/>
			<point x="397" y="420" type="line"/>
			<point x="344" y="469" type="line"/>
			<point x="395" y="99" type="line" smooth="yes"/>
			<point x="404" y="35"/>
			<point x="428" y="-8"/>
			<point x="493" y="-8" type="curve" smooth="yes"/>
			<point x="553" y="-8"/>
			<point x="590" y="35"/>
			<point x="600" y="99" type="curve" smooth="yes"/>
			<point x="656" y="443" type="line" smooth="yes"/>
			<point x="663" y="483"/>
			<point x="636" y="510"/>
			<point x="608" y="510" type="curve" smooth="yes"/>
			<point x="586" y="510"/>
			<point x="562" y="492"/>
			<point x="556" y="449" type="curve" smooth="yes"/>
			<point x="502" y="83" type="line"/>
			<point x="515" y="92" type="line"/>
			<point x="476" y="92" type="line"/>
			<point x="490" y="83" type="line"/>
			<point x="431" y="449" type="line" smooth="yes"/>
			<point x="425" y="488"/>
			<point x="386" y="510"/>
			<point x="345" y="510" type="curve" smooth="yes"/>
			<point x="304" y="510"/>
			<point x="265" y="488"/>
			<point x="259" y="449" type="curve" smooth="yes"/>
			<point x="200" y="83" type="line"/>
			<point x="214" y="92" type="line"/>
			<point x="175" y="92" type="line"/>
			<point x="188" y="83" type="line"/>
			<point x="134" y="449" type="line" smooth="yes"/>
			<point x="128" y="489"/>
			<point x="102" y="508"/>
			<point x="77" y="508" type="curve" smooth="yes"/>
			<point x="51" y="508"/>
			<point x="27" y="486"/>
			<point x="34" y="443" type="curve" smooth="yes"/>
			<point x="90" y="99" type="line" smooth="yes"/>
			<point x="100" y="35"/>
			<point x="137" y="-8"/>
		</contour>
	</outline>
</glyph>
<glyph name="AE" format="2">
	<advance width="758"/>
	<unicode hex="00C6"/>
	<anchor x="478" y="700" name="top"/>
	<outline>
		<contour>
			<point x="68" y="-9" type="curve" smooth="yes"/>
			<point x="100" y="-9"/>
			<point x="126" y="11"/>
			<point x="145" y="52" type="curve" smooth="yes"/>
			<point x="402" y="600" type="line"/>
			<point x="407" y="600" type="line"/>
			<point x="527" y="601" type="line"/>
			<point x="522" y="672"/>
			<point x="430" y="700"/>
			<point x="430" y="700" type="curve" smooth="yes"/>
			<point x="381" y="700"/>
			<point x="328" y="675"/>
			<point x="293" y="601" type="curve" smooth="yes"/>
			<point x="43" y="72" type="line" smooth="yes"/>
			<point x="18" y="19"/>
			<point x="31" y="-9"/>
		</contour>
		<contour>
			<point x="169" y="234" type="line"/>
			<point x="466" y="234" type="line"/>
			<point x="458" y="329" type="line"/>
			<point x="219" y="329" type="line"/>
		</contour>
		<contour>
			<point x="443" y="234" type="line"/>
			<point x="644" y="234" type="line" smooth="yes"/>
			<point x="679" y="234"/>
			<point x="703" y="254"/>
			<point x="703" y="284" type="curve" smooth="yes"/>
			<point x="703" y="314"/>
			<point x="679" y="334"/>
			<point x="643" y="334" type="curve" smooth="yes"/>
			<point x="443" y="334" type="line"/>
		</contour>
		<contour>
			<point x="465" y="0" type="curve" smooth="yes"/>
			<point x="704" y="0" type="line" smooth="yes"/>
			<point x="739" y="0"/>
			<point x="763" y="20"/>
			<point x="763" y="50" type="curve" smooth="yes"/>
			<point x="763" y="79"/>
			<point x="739" y="100"/>
			<point x="703" y="100" type="curve" smooth="yes"/>
			<point x="467" y="100" type="line"/>
			<point x="526" y="63" type="line"/>
			<point x="526" y="639" type="line"/>
			<point x="467" y="600" type="line"/>
			<point x="704" y="600" type="line" smooth="yes"/>
			<point x="739" y="600"/>
			<point x="763" y="620"/>
			<point x="763" y="650" type="curve" smooth="yes"/>
			<point x="763" y="680"/>
			<point x="739" y="700"/>
			<point x="703" y="700" type="curve" smooth="yes"/>
			<point x="430" y="700" type="line" smooth="yes"/>
			<point x="430" y="700"/>
			<point x="406" y="672"/>
			<point x="406" y="630" type="curve"/>
			<point x="406" y="70" type="line" smooth="yes"/>
			<point x="406" y="28"/>
			<point x="430" y="0"/>
		</contour>
	</outline>
</glyph>
<glyph name="ae" format="2">
	<advance width="784"/>
	<unicode hex="00E6"/>
	<anchor x="277" y="500" name="top"/>
	<outline>
		<contour>
			<point x="208" y="-10" type="curve" smooth="yes"/>
			<point x="270" y="-10"/>
			<point x="358" y="11"/>
			<point x="398" y="76" type="curve"/>
			<point x="401" y="76" type="line"/>
			<point x="431" y="22"/>
			<point x="496" y="-10"/>
			<point x="573" y="-10" type="curve" smooth="yes"/>
			<point x="648" y="-10"/>
			<point x="745" y="36"/>
			<point x="745" y="95" type="curve" smooth="yes"/>
			<point x="745" y="116"/>
			<point x="730" y="132"/>
			<point x="708" y="132" type="curve" smooth="yes"/>
			<point x="659" y="132"/>
			<point x="672" y="80"/>
			<point x="569" y="80" type="curve" smooth="yes"/>
			<point x="498" y="80"/>
			<point x="465" y="125"/>
			<point x="465" y="218" type="curve"/>
			<point x="679" y="218" type="line" smooth="yes"/>
			<point x="715" y="218"/>
			<point x="741" y="241"/>
			<point x="741" y="288" type="curve" smooth="yes"/>
			<point x="741" y="425"/>
			<point x="687" y="510"/>
			<point x="556" y="510" type="curve" smooth="yes"/>
			<point x="495" y="510"/>
			<point x="443" y="485"/>
			<point x="416" y="452" type="curve"/>
			<point x="413" y="452" type="line"/>
			<point x="385" y="486"/>
			<point x="330" y="510"/>
			<point x="270" y="510" type="curve" smooth="yes"/>
			<point x="120" y="510"/>
			<point x="76" y="436"/>
			<point x="76" y="382" type="curve" smooth="yes"/>
			<point x="76" y="338"/>
			<point x="97" y="317"/>
			<point x="130" y="317" type="curve" smooth="yes"/>
			<point x="165" y="317"/>
			<point x="186" y="337"/>
			<point x="186" y="370" type="curve" smooth="yes"/>
			<point x="186" y="383"/>
			<point x="180" y="395"/>
			<point x="170" y="405" type="curve"/>
			<point x="193" y="417"/>
			<point x="219" y="424"/>
			<point x="246" y="424" type="curve" smooth="yes"/>
			<point x="324" y="424"/>
			<point x="355" y="382"/>
			<point x="355" y="308" type="curve" smooth="yes"/>
			<point x="355" y="296" type="line"/>
			<point x="255" y="296" type="line" smooth="yes"/>
			<point x="145" y="296"/>
			<point x="55" y="239"/>
			<point x="55" y="135" type="curve" smooth="yes"/>
			<point x="55" y="42"/>
			<point x="116" y="-10"/>
		</contour>
		<contour>
			<point x="265" y="80" type="curve" smooth="yes"/>
			<point x="204" y="80"/>
			<point x="170" y="106"/>
			<point x="170" y="145" type="curve" smooth="yes"/>
			<point x="170" y="195"/>
			<point x="218" y="218"/>
			<point x="282" y="218" type="curve" smooth="yes"/>
			<point x="355" y="218" type="line"/>
			<point x="355" y="168" type="line" smooth="yes"/>
			<point x="355" y="112"/>
			<point x="319" y="80"/>
		</contour>
		<contour>
			<point x="466" y="296" type="line"/>
			<point x="474" y="384"/>
			<point x="506" y="420"/>
			<point x="557" y="420" type="curve" smooth="yes"/>
			<point x="603" y="420"/>
			<point x="629" y="391"/>
			<point x="638" y="325" type="curve" smooth="yes"/>
			<point x="640" y="316"/>
			<point x="640" y="306"/>
			<point x="641" y="296" type="curve"/>
		</contour>
	</outline>
</glyph>
<glyph name="dotlessi" format="2">
	<advance width="232"/>
	<unicode hex="0131"/>
	<anchor x="116" y="500" name="top"/>
	<outline>
		<contour>
			<point x="116" y="-11" type="curve" smooth="yes"/>
			<point x="149" y="-11"/>
			<point x="171" y="16"/>
			<point x="171" y="49" type="curve" smooth="yes"/>
			<point x="171" y="450" type="line" smooth="yes"/>
			<point x="171" y="483"/>
			<point x="149" y="510"/>
			<point x="116" y="510" type="curve" smooth="yes"/>
			<point x="83" y="510"/>
			<point x="61" y="483"/>
			<point x="61" y="450" type="curve" smooth="yes"/>
			<point x="61" y="49" type="line" smooth="yes"/>
			<point x="61" y="16"/>
			<point x="83" y="-11"/>
		</contour>
	</outline>
</glyph>
<glyph name="OE" format="2">
	<advance width="737"/>
	<unicode hex="0152"/>
	<anchor x="265" y="700" name="top"/>
	<outline>
		<contour>
			<point x="325" y="0" type="curve" smooth="yes"/>
			<point x="362" y="0"/>
			<point x="367" y="0"/>
			<point x="444" y="0" type="curve"/>
			<point x="446" y="100" type="line"/>
			<point x="364" y="100"/>
			<point x="347" y="100"/>
			<point x="325" y="100" type="curve" smooth="yes"/>
			<point x="247" y="100"/>
			<point x="185" y="141"/>
			<point x="185" y="351" type="curve" smooth="yes"/>
			<point x="185" y="559"/>
			<point x="247" y="599"/>
			<point x="325" y="599" type="curve" smooth="yes"/>
			<point x="350" y="599"/>
			<point x="378" y="600"/>
			<point x="446" y="600" type="curve"/>
			<point x="445" y="700" type="line"/>
			<point x="377" y="700"/>
			<point x="355" y="699"/>
			<point x="325" y="699" type="curve" smooth="yes"/>
			<point x="173" y="699"/>
			<point x="65" y="616"/>
			<point x="65" y="351" type="curve" smooth="yes"/>
			<point x="65" y="84"/>
			<point x="173" y="0"/>
		</contour>
		<contour>
			<point x="422" y="291" type="line"/>
			<point x="633" y="291" type="line" smooth="yes"/>
			<point x="668" y="291"/>
			<point x="692" y="311"/>
			<point x="692" y="341" type="curve" smooth="yes"/>
			<point x="692" y="371"/>
			<point x="668" y="391"/>
			<point x="632" y="391" type="curve" smooth="yes"/>
			<point x="422" y="391" type="line"/>
		</contour>
		<contour>
			<point x="444" y="0" type="curve" smooth="yes"/>
			<point x="683" y="0" type="line" smooth="yes"/>
			<point x="718" y="0"/>
			<point x="742" y="20"/>
			<point x="742" y="50" type="curve" smooth="yes"/>
			<point x="742" y="79"/>
			<point x="718" y="100"/>
			<point x="682" y="100" type="curve" smooth="yes"/>
			<point x="446" y="100" type="line"/>
			<point x="505" y="63" type="line"/>
			<point x="505" y="639" type="line"/>
			<point x="446" y="600" type="line"/>
			<point x="683" y="600" type="line" smooth="yes"/>
			<point x="718" y="600"/>
			<point x="742" y="620"/>
			<point x="742" y="650" type="curve" smooth="yes"/>
			<point x="742" y="680"/>
			<point x="718" y="700"/>
			<point x="682" y="700" type="curve" smooth="yes"/>
			<point x="445" y="700" type="line" smooth="yes"/>
			<point x="409" y="700"/>
			<point x="385" y="672"/>
			<point x="385" y="630" type="curve"/>
			<point x="385" y="70" type="line" smooth="yes"/>
			<point x="385" y="28"/>
			<point x="409" y="0"/>
		</contour>
	</outline>
</glyph>
<glyph name="oe" format="2">
	<advance width="794"/>
	<unicode hex="0153"/>
	<anchor x="777" y="500" name="top"/>
	<outline>
		<contour>
			<point x="267" y="-10" type="curve" smooth="yes"/>
			<point x="336" y="-10"/>
			<point x="385" y="11"/>
			<point x="419" y="65" type="curve"/>
			<point x="421" y="65" type="line"/>
			<point x="460" y="8"/>
			<point x="516" y="-10"/>
			<point x="583" y="-10" type="curve" smooth="yes"/>
			<point x="658" y="-10"/>
			<point x="755" y="36"/>
			<point x="755" y="95" type="curve" smooth="yes"/>
			<point x="755" y="116"/>
			<point x="740" y="132"/>
			<point x="718" y="132" type="curve" smooth="yes"/>
			<point x="669" y="132"/>
			<point x="682" y="80"/>
			<point x="579" y="80" type="curve" smooth="yes"/>
			<point x="502" y="80"/>
			<point x="479" y="134"/>
			<point x="475" y="218" type="curve"/>
			<point x="689" y="218" type="line" smooth="yes"/>
			<point x="725" y="218"/>
			<point x="751" y="241"/>
			<point x="751" y="288" type="curve" smooth="yes"/>
			<point x="751" y="425"/>
			<point x="697" y="510"/>
			<point x="566" y="510" type="curve" smooth="yes"/>
			<point x="500" y="510"/>
			<point x="451" y="490"/>
			<point x="418" y="443" type="curve"/>
			<point x="416" y="443" type="line"/>
			<point x="379" y="494"/>
			<point x="328" y="510"/>
			<point x="267" y="510" type="curve" smooth="yes"/>
			<point x="114" y="510"/>
			<point x="55" y="406"/>
			<point x="55" y="250" type="curve" smooth="yes"/>
			<point x="55" y="63"/>
			<point x="140" y="-10"/>
		</contour>
		<contour>
			<point x="269" y="81" type="curve" smooth="yes"/>
			<point x="198" y="81"/>
			<point x="170" y="149"/>
			<point x="170" y="250" type="curve" smooth="yes"/>
			<point x="170" y="372"/>
			<point x="209" y="419"/>
			<point x="267" y="419" type="curve" smooth="yes"/>
			<point x="335" y="419"/>
			<point x="362" y="351"/>
			<point x="362" y="250" type="curve" smooth="yes"/>
			<point x="362" y="128"/>
			<point x="325" y="81"/>
		</contour>
		<contour>
			<point x="476" y="296" type="line"/>
			<point x="484" y="384"/>
			<point x="516" y="420"/>
			<point x="567" y="420" type="curve" smooth="yes"/>
			<point x="614" y="420"/>
			<point x="641" y="390"/>
			<point x="649" y="319" type="curve" smooth="yes"/>
			<point x="650" y="312"/>
			<point x="651" y="304"/>
			<point x="651" y="296" type="curve"/>
		</contour>
	</outline>
</glyph>
<glyph name="fl" format="2">
	<advance width="606"/>
	<unicode hex="FB02"/>
	<outline>
		<contour>
			<point x="30" y="455" type="curve" smooth="yes"/>
			<point x="30" y="420"/>
			<point x="64" y="410"/>
			<point x="83" y="410" type="curve" smooth="yes"/>
			<point x="302" y="410" type="line" smooth="yes"/>
			<point x="320" y="410"/>
			<point x="355" y="420"/>
			<point x="355" y="455" type="curve" smooth="yes"/>
			<point x="355" y="491"/>
			<point x="319" y="500"/>
			<point x="300" y="500" type="curve" smooth="yes"/>
			<point x="86" y="500" type="line" smooth="yes"/>
			<point x="64" y="500"/>
			<point x="30" y="490"/>
		</contour>
		<contour>
			<point x="546" y="703" type="line" smooth="yes"/>
			<point x="546" y="721"/>
			<point x="535" y="760"/>
			<point x="490" y="760" type="curve" smooth="yes"/>
			<point x="457" y="760"/>
			<point x="442" y="734"/>
			<point x="442" y="707" type="curve" smooth="yes"/>
			<point x="442" y="688" type="line"/>
			<point x="440" y="688" type="line"/>
			<point x="425" y="725"/>
			<point x="396" y="760"/>
			<point x="315" y="760" type="curve" smooth="yes"/>
			<point x="218" y="760"/>
			<point x="116" y="707"/>
			<point x="116" y="562" type="curve" smooth="yes"/>
			<point x="116" y="57" type="line" smooth="yes"/>
			<point x="116" y="32"/>
			<point x="129" y="-10"/>
			<point x="171" y="-10" type="curve" smooth="yes"/>
			<point x="212" y="-10"/>
			<point x="226" y="31"/>
			<point x="226" y="57" type="curve" smooth="yes"/>
			<point x="226" y="565" type="line" smooth="yes"/>
			<point x="226" y="661"/>
			<point x="275" y="675"/>
			<point x="326" y="675" type="curve" smooth="yes"/>
			<point x="395" y="675"/>
			<point x="436" y="631"/>
			<point x="436" y="559" type="curve" smooth="yes"/>
			<point x="436" y="49" type="line" smooth="yes"/>
			<point x="436" y="12"/>
			<point x="460" y="-10"/>
			<point x="492" y="-10" type="curve" smooth="yes"/>
			<point x="528" y="-10"/>
			<point x="546" y="20"/>
			<point x="546" y="50" type="curve" smooth="yes"/>
		</contour>
	</outline>
</glyph>
<glyph name="Q.alt" format="2">
	<advance width="611"/>
	<outline>
		<contour>
			<point x="461" y="-141" type="curve" smooth="yes"/>
			<point x="512" y="-141"/>
			<point x="546" y="-116"/>
			<point x="546" y="-74" type="curve" smooth="yes"/>
			<point x="546" y="-32"/>
			<point x="519" y="-4"/>
			<point x="478" y="-4" type="curve" smooth="yes"/>
			<point x="439" y="-4"/>
			<point x="413" y="-32"/>
			<point x="413" y="-74" type="curve"/>
			<point x="461" y="-56" type="line"/>
			<point x="383" y="-56"/>
			<point x="389" y="65"/>
			<point x="228" y="111" type="curve"/>
			<point x="213" y="65" type="line"/>
			<point x="376" y="65"/>
			<point x="525" y="201"/>
			<point x="525" y="406" type="curve" smooth="yes"/>
			<point x="525" y="588"/>
			<point x="433" y="710"/>
			<point x="295" y="710" type="curve" smooth="yes"/>
			<point x="157" y="710"/>
			<point x="65" y="612"/>
			<point x="65" y="435" type="curve" smooth="yes"/>
			<point x="65" y="304"/>
			<point x="139" y="197"/>
			<point x="249" y="197" type="curve" smooth="yes"/>
			<point x="327" y="197"/>
			<point x="327" y="297"/>
			<point x="253" y="297" type="curve" smooth="yes"/>
			<point x="218" y="297"/>
			<point x="185" y="365"/>
			<point x="185" y="436" type="curve" smooth="yes"/>
			<point x="185" y="552"/>
			<point x="229" y="610"/>
			<point x="295" y="610" type="curve" smooth="yes"/>
			<point x="361" y="610"/>
			<point x="405" y="528"/>
			<point x="405" y="406" type="curve" smooth="yes"/>
			<point x="405" y="230"/>
			<point x="310" y="126"/>
			<point x="228" y="146" type="curve" smooth="yes"/>
			<point x="138" y="168"/>
			<point x="100" y="58"/>
			<point x="200" y="33" type="curve" smooth="yes"/>
			<point x="316" y="4"/>
			<point x="323" y="-141"/>
		</contour>
	</outline>
</glyph>
<glyph name="bullet.salt" format="2">
	<advance width="544"/>
	<guideline x="349" y="479" angle="0"/>
	<outline>
		<contour>
			<point x="273" y="196" type="curve" smooth="yes"/>
			<point x="332" y="196"/>
			<point x="367" y="231"/>
			<point x="367" y="273" type="curve" smooth="yes"/>
			<point x="367" y="319"/>
			<point x="332" y="390"/>
			<point x="273" y="390" type="curve" smooth="yes"/>
			<point x="216" y="390"/>
			<point x="179" y="321"/>
			<point x="179" y="273" type="curve" smooth="yes"/>
			<point x="179" y="231"/>
			<point x="215" y="196"/>
		</contour>
		<contour>
			<point x="142" y="318" type="curve" smooth="yes"/>
			<point x="168" y="318"/>
			<point x="180" y="338"/>
			<point x="180" y="360" type="curve" smooth="yes"/>
			<point x="180" y="385"/>
			<point x="161" y="409"/>
			<point x="138" y="409" type="curve" smooth="yes"/>
			<point x="115" y="409"/>
			<point x="100" y="391"/>
			<point x="100" y="367" type="curve" smooth="yes"/>
			<point x="100" y="343"/>
			<point x="117" y="318"/>
		</contour>
		<contour>
			<point x="224" y="404" type="curve" smooth="yes"/>
			<point x="246" y="404"/>
			<point x="261" y="419"/>
			<point x="261" y="445" type="curve" smooth="yes"/>
			<point x="261" y="470"/>
			<point x="243" y="503"/>
			<point x="219" y="503" type="curve" smooth="yes"/>
			<point x="188" y="503"/>
			<point x="181" y="475"/>
			<point x="181" y="452" type="curve" smooth="yes"/>
			<point x="181" y="426"/>
			<point x="199" y="404"/>
		</contour>
		<contour>
			<point x="403" y="319" type="curve" smooth="yes"/>
			<point x="428" y="319"/>
			<point x="444" y="343"/>
			<point x="444" y="366" type="curve" smooth="yes"/>
			<point x="444" y="387"/>
			<point x="431" y="409"/>
			<point x="406" y="409" type="curve" smooth="yes"/>
			<point x="383" y="409"/>
			<point x="365" y="386"/>
			<point x="365" y="361" type="curve" smooth="yes"/>
			<point x="365" y="338"/>
			<point x="377" y="319"/>
		</contour>
		<contour>
			<point x="324" y="405" type="curve" smooth="yes"/>
			<point x="348" y="405"/>
			<point x="367" y="427"/>
			<point x="367" y="453" type="curve" smooth="yes"/>
			<point x="367" y="476"/>
			<point x="360" y="503"/>
			<point x="328" y="503" type="curve" smooth="yes"/>
			<point x="304" y="503"/>
			<point x="287" y="470"/>
			<point x="287" y="445" type="curve" smooth="yes"/>
			<point x="287" y="420"/>
			<point x="300" y="405"/>
		</contour>
	</outline>
</glyph>
<glyph name="y.salt" format="2">
	<advance width="520"/>
	<anchor x="263" y="500" name="top"/>
	<anchor x="260" y="0" name="bottom"/>
	<outline>
		<contour>
			<point x="260" y="-210" type="curve" smooth="yes"/>
			<point x="387" y="-210"/>
			<point x="465" y="-129"/>
			<point x="465" y="-8" type="curve" smooth="yes"/>
			<point x="465" y="456" type="line" smooth="yes"/>
			<point x="465" y="489"/>
			<point x="441" y="510"/>
			<point x="410" y="510" type="curve" smooth="yes"/>
			<point x="377" y="510"/>
			<point x="355" y="486"/>
			<point x="355" y="450" type="curve" smooth="yes"/>
			<point x="355" y="168" type="line" smooth="yes"/>
			<point x="355" y="115"/>
			<point x="319" y="80"/>
			<point x="265" y="80" type="curve" smooth="yes"/>
			<point x="207" y="80"/>
			<point x="169" y="150"/>
			<point x="169" y="217" type="curve" smooth="yes"/>
			<point x="169" y="450" type="line" smooth="yes"/>
			<point x="169" y="486"/>
			<point x="146" y="510"/>
			<point x="112" y="510" type="curve" smooth="yes"/>
			<point x="78" y="510"/>
			<point x="55" y="486"/>
			<point x="55" y="450" type="curve" smooth="yes"/>
			<point x="55" y="192" type="line" smooth="yes"/>
			<point x="55" y="94"/>
			<point x="130" y="-10"/>
			<point x="242" y="-10" type="curve" smooth="yes"/>
			<point x="292" y="-10"/>
			<point x="332" y="21"/>
			<point x="353" y="71" type="curve"/>
			<point x="355" y="71" type="line"/>
			<point x="355" y="-8" type="line" smooth="yes"/>
			<point x="355" y="-75"/>
			<point x="311" y="-120"/>
			<point x="251" y="-120" type="curve" smooth="yes"/>
			<point x="231" y="-120"/>
			<point x="198" y="-119"/>
			<point x="171" y="-107" type="curve"/>
			<point x="174" y="-101"/>
			<point x="175" y="-94"/>
			<point x="175" y="-87" type="curve" smooth="yes"/>
			<point x="175" y="-52"/>
			<point x="151" y="-29"/>
			<point x="115" y="-29" type="curve" smooth="yes"/>
			<point x="77" y="-29"/>
			<point x="55" y="-63"/>
			<point x="55" y="-98" type="curve" smooth="yes"/>
			<point x="55" y="-172"/>
			<point x="144" y="-210"/>
		</contour>
	</outline>
</glyph>
